<mxfile host="app.diagrams.net" modified="2022-04-30T08:28:41.394Z" agent="5.0 (Windows NT 10.0; Win64; x64) AppleWebKit/537.36 (KHTML, like Gecko) Chrome/101.0.4951.41 Safari/537.36" etag="6Bl9DncpokgivkdCsZ35" version="17.5.0" type="github">
  <diagram id="8wBGGeEMUbEc2Ed3t6bo" name="Page-1">
    <mxGraphModel dx="916" dy="541" grid="1" gridSize="10" guides="1" tooltips="1" connect="1" arrows="1" fold="1" page="1" pageScale="1" pageWidth="850" pageHeight="1100" math="0" shadow="0">
      <root>
        <mxCell id="0" />
        <mxCell id="1" parent="0" />
        <mxCell id="ZxNRdNKvEkR7DDzx8TMs-1" value="" style="rounded=0;whiteSpace=wrap;html=1;" vertex="1" parent="1">
          <mxGeometry x="70" y="190" width="130" height="270" as="geometry" />
        </mxCell>
        <mxCell id="ZxNRdNKvEkR7DDzx8TMs-2" value="Sensing" style="text;html=1;strokeColor=none;fillColor=none;align=center;verticalAlign=middle;whiteSpace=wrap;rounded=0;" vertex="1" parent="1">
          <mxGeometry x="105" y="190" width="60" height="30" as="geometry" />
        </mxCell>
        <mxCell id="ZxNRdNKvEkR7DDzx8TMs-3" value="ToF&lt;br&gt;sensor" style="rounded=0;whiteSpace=wrap;html=1;" vertex="1" parent="1">
          <mxGeometry x="95" y="341.25" width="80" height="40" as="geometry" />
        </mxCell>
        <mxCell id="ZxNRdNKvEkR7DDzx8TMs-4" value="StrainGauge&lt;br&gt;Sensor&lt;br&gt;" style="rounded=0;whiteSpace=wrap;html=1;" vertex="1" parent="1">
          <mxGeometry x="95" y="280" width="80" height="40" as="geometry" />
        </mxCell>
        <mxCell id="ZxNRdNKvEkR7DDzx8TMs-5" value="Wheel Encoder" style="rounded=0;whiteSpace=wrap;html=1;" vertex="1" parent="1">
          <mxGeometry x="95" y="220" width="80" height="40" as="geometry" />
        </mxCell>
        <mxCell id="ZxNRdNKvEkR7DDzx8TMs-6" value="IR Sensor" style="rounded=0;whiteSpace=wrap;html=1;" vertex="1" parent="1">
          <mxGeometry x="95" y="400" width="80" height="40" as="geometry" />
        </mxCell>
        <mxCell id="ZxNRdNKvEkR7DDzx8TMs-7" value="AutoPilot&lt;br&gt;(FCU)" style="rounded=0;whiteSpace=wrap;html=1;" vertex="1" parent="1">
          <mxGeometry x="70" y="480" width="130" height="70" as="geometry" />
        </mxCell>
        <mxCell id="ZxNRdNKvEkR7DDzx8TMs-8" value="" style="shape=flexArrow;endArrow=classic;startArrow=classic;html=1;rounded=0;width=6;" edge="1" parent="1">
          <mxGeometry width="100" height="100" relative="1" as="geometry">
            <mxPoint x="200" y="514.71" as="sourcePoint" />
            <mxPoint x="290" y="515.05" as="targetPoint" />
          </mxGeometry>
        </mxCell>
        <mxCell id="ZxNRdNKvEkR7DDzx8TMs-10" value="&lt;span style=&quot;color: rgba(0 , 0 , 0 , 0) ; font-family: monospace ; font-size: 0px&quot;&gt;%3CmxGraphModel%3E%3Croot%3E%3CmxCell%20id%3D%220%22%2F%3E%3CmxCell%20id%3D%221%22%20parent%3D%220%22%2F%3E%3CmxCell%20id%3D%222%22%20value%3D%22%22%20style%3D%22endArrow%3Dclassic%3BstartArrow%3Dclassic%3Bhtml%3D1%3Brounded%3D0%3BentryX%3D0.5%3BentryY%3D1%3BentryDx%3D0%3BentryDy%3D0%3B%22%20edge%3D%221%22%20parent%3D%221%22%3E%3CmxGeometry%20width%3D%2250%22%20height%3D%2250%22%20relative%3D%221%22%20as%3D%22geometry%22%3E%3CmxPoint%20x%3D%22370%22%20y%3D%22410%22%20as%3D%22sourcePoint%22%2F%3E%3CmxPoint%20x%3D%22370%22%20y%3D%22390%22%20as%3D%22targetPoint%22%2F%3E%3C%2FmxGeometry%3E%3C%2FmxCell%3E%3C%2Froot%3E%3C%2FmxGraphModel%3E&lt;/span&gt;&lt;span style=&quot;color: rgba(0 , 0 , 0 , 0) ; font-family: monospace ; font-size: 0px&quot;&gt;%3CmxGraphModel%3E%3Croot%3E%3CmxCell%20id%3D%220%22%2F%3E%3CmxCell%20id%3D%221%22%20parent%3D%220%22%2F%3E%3CmxCell%20id%3D%222%22%20value%3D%22%22%20style%3D%22endArrow%3Dclassic%3BstartArrow%3Dclassic%3Bhtml%3D1%3Brounded%3D0%3BentryX%3D0.5%3BentryY%3D1%3BentryDx%3D0%3BentryDy%3D0%3B%22%20edge%3D%221%22%20parent%3D%221%22%3E%3CmxGeometry%20width%3D%2250%22%20height%3D%2250%22%20relative%3D%221%22%20as%3D%22geometry%22%3E%3CmxPoint%20x%3D%22370%22%20y%3D%22410%22%20as%3D%22sourcePoint%22%2F%3E%3CmxPoint%20x%3D%22370%22%20y%3D%22390%22%20as%3D%22targetPoint%22%2F%3E%3C%2FmxGeometry%3E%3C%2FmxCell%3E%3C%2Froot%3E%3C%2FmxGraphModel%3E&lt;/span&gt;&lt;span style=&quot;color: rgba(0 , 0 , 0 , 0) ; font-family: monospace ; font-size: 0px&quot;&gt;%3CmxGraphModel%3E%3Croot%3E%3CmxCell%20id%3D%220%22%2F%3E%3CmxCell%20id%3D%221%22%20parent%3D%220%22%2F%3E%3CmxCell%20id%3D%222%22%20value%3D%22%22%20style%3D%22endArrow%3Dclassic%3BstartArrow%3Dclassic%3Bhtml%3D1%3Brounded%3D0%3BentryX%3D0.5%3BentryY%3D1%3BentryDx%3D0%3BentryDy%3D0%3B%22%20edge%3D%221%22%20parent%3D%221%22%3E%3CmxGeometry%20width%3D%2250%22%20height%3D%2250%22%20relative%3D%221%22%20as%3D%22geometry%22%3E%3CmxPoint%20x%3D%22370%22%20y%3D%22410%22%20as%3D%22sourcePoint%22%2F%3E%3CmxPoint%20x%3D%22370%22%20y%3D%22390%22%20as%3D%22targetPoint%22%2F%3E%3C%2FmxGeometry%3E%3C%2FmxCell%3E%3C%2Froot%3E%3C%2FmxGraphModel%3E&lt;/span&gt;&lt;span style=&quot;color: rgba(0 , 0 , 0 , 0) ; font-family: monospace ; font-size: 0px&quot;&gt;%3CmxGraphModel%3E%3Croot%3E%3CmxCell%20id%3D%220%22%2F%3E%3CmxCell%20id%3D%221%22%20parent%3D%220%22%2F%3E%3CmxCell%20id%3D%222%22%20value%3D%22%22%20style%3D%22endArrow%3Dclassic%3BstartArrow%3Dclassic%3Bhtml%3D1%3Brounded%3D0%3BentryX%3D0.5%3BentryY%3D1%3BentryDx%3D0%3BentryDy%3D0%3B%22%20edge%3D%221%22%20parent%3D%221%22%3E%3CmxGeometry%20width%3D%2250%22%20height%3D%2250%22%20relative%3D%221%22%20as%3D%22geometry%22%3E%3CmxPoint%20x%3D%22370%22%20y%3D%22410%22%20as%3D%22sourcePoint%22%2F%3E%3CmxPoint%20x%3D%22370%22%20y%3D%22390%22%20as%3D%22targetPoint%22%2F%3E%3C%2FmxGeometry%3E%3C%2FmxCell%3E%3C%2Froot%3E%3C%2FmxGraphModel%3E&lt;/span&gt;" style="rounded=0;whiteSpace=wrap;html=1;" vertex="1" parent="1">
          <mxGeometry x="290" y="180" width="360" height="380" as="geometry" />
        </mxCell>
        <mxCell id="ZxNRdNKvEkR7DDzx8TMs-11" value="" style="rounded=0;whiteSpace=wrap;html=1;" vertex="1" parent="1">
          <mxGeometry x="300" y="190" width="120" height="360" as="geometry" />
        </mxCell>
        <mxCell id="ZxNRdNKvEkR7DDzx8TMs-12" value="Firmware" style="text;html=1;strokeColor=none;fillColor=none;align=center;verticalAlign=middle;whiteSpace=wrap;rounded=0;" vertex="1" parent="1">
          <mxGeometry x="330" y="190" width="60" height="20" as="geometry" />
        </mxCell>
        <mxCell id="ZxNRdNKvEkR7DDzx8TMs-13" value="" style="rounded=0;whiteSpace=wrap;html=1;" vertex="1" parent="1">
          <mxGeometry x="305" y="210" width="110" height="170" as="geometry" />
        </mxCell>
        <mxCell id="ZxNRdNKvEkR7DDzx8TMs-14" value="&lt;font style=&quot;font-size: 9px&quot;&gt;Sensor Device Drivers&lt;/font&gt;" style="text;html=1;strokeColor=none;fillColor=none;align=center;verticalAlign=middle;whiteSpace=wrap;rounded=0;" vertex="1" parent="1">
          <mxGeometry x="320" y="210" width="80" height="30" as="geometry" />
        </mxCell>
        <mxCell id="ZxNRdNKvEkR7DDzx8TMs-15" value="ToF &amp;amp; IR Drivers" style="rounded=0;whiteSpace=wrap;html=1;" vertex="1" parent="1">
          <mxGeometry x="310" y="330" width="100" height="40" as="geometry" />
        </mxCell>
        <mxCell id="ZxNRdNKvEkR7DDzx8TMs-16" value="StrainGauge Driver" style="rounded=0;whiteSpace=wrap;html=1;" vertex="1" parent="1">
          <mxGeometry x="310" y="285" width="100" height="40" as="geometry" />
        </mxCell>
        <mxCell id="ZxNRdNKvEkR7DDzx8TMs-17" value="Wheel Encoder Driver" style="rounded=0;whiteSpace=wrap;html=1;" vertex="1" parent="1">
          <mxGeometry x="310" y="240" width="100" height="40" as="geometry" />
        </mxCell>
        <mxCell id="ZxNRdNKvEkR7DDzx8TMs-18" value="" style="rounded=0;whiteSpace=wrap;html=1;" vertex="1" parent="1">
          <mxGeometry x="305" y="400" width="110" height="140" as="geometry" />
        </mxCell>
        <mxCell id="ZxNRdNKvEkR7DDzx8TMs-19" value="" style="endArrow=classic;startArrow=classic;html=1;rounded=0;entryX=0.5;entryY=1;entryDx=0;entryDy=0;" edge="1" parent="1" source="ZxNRdNKvEkR7DDzx8TMs-18" target="ZxNRdNKvEkR7DDzx8TMs-13">
          <mxGeometry width="50" height="50" relative="1" as="geometry">
            <mxPoint x="320" y="460" as="sourcePoint" />
            <mxPoint x="360" y="400" as="targetPoint" />
          </mxGeometry>
        </mxCell>
        <mxCell id="ZxNRdNKvEkR7DDzx8TMs-20" value="&lt;font style=&quot;font-size: 9px&quot;&gt;Communication Stack&lt;/font&gt;" style="text;html=1;strokeColor=none;fillColor=none;align=center;verticalAlign=middle;whiteSpace=wrap;rounded=0;" vertex="1" parent="1">
          <mxGeometry x="330" y="405" width="60" height="15" as="geometry" />
        </mxCell>
        <mxCell id="ZxNRdNKvEkR7DDzx8TMs-23" value="" style="rounded=0;whiteSpace=wrap;html=1;" vertex="1" parent="1">
          <mxGeometry x="310" y="430" width="100" height="40" as="geometry" />
        </mxCell>
        <mxCell id="ZxNRdNKvEkR7DDzx8TMs-21" value="&lt;font style=&quot;font-size: 12px&quot;&gt;I2C Driver&lt;/font&gt;" style="text;html=1;strokeColor=none;fillColor=none;align=center;verticalAlign=middle;whiteSpace=wrap;rounded=0;fontSize=9;" vertex="1" parent="1">
          <mxGeometry x="330" y="435" width="60" height="30" as="geometry" />
        </mxCell>
        <mxCell id="ZxNRdNKvEkR7DDzx8TMs-24" value="CAN Driver" style="rounded=0;whiteSpace=wrap;html=1;" vertex="1" parent="1">
          <mxGeometry x="310" y="490" width="100" height="40" as="geometry" />
        </mxCell>
        <mxCell id="ZxNRdNKvEkR7DDzx8TMs-25" value="" style="rounded=0;whiteSpace=wrap;html=1;fontSize=12;" vertex="1" parent="1">
          <mxGeometry x="440" y="190" width="50" height="360" as="geometry" />
        </mxCell>
        <mxCell id="ZxNRdNKvEkR7DDzx8TMs-26" value="Hardware Abstraction Layer" style="text;html=1;strokeColor=none;fillColor=none;align=center;verticalAlign=middle;whiteSpace=wrap;rounded=0;fontSize=12;rotation=90;" vertex="1" parent="1">
          <mxGeometry x="353.75" y="351.25" width="222.5" height="30" as="geometry" />
        </mxCell>
        <mxCell id="ZxNRdNKvEkR7DDzx8TMs-38" value="" style="endArrow=classic;startArrow=classic;html=1;rounded=0;verticalAlign=top;horizontal=0;fontStyle=2;align=center;" edge="1" parent="1">
          <mxGeometry width="50" height="50" relative="1" as="geometry">
            <mxPoint x="414.9985714285724" y="310" as="sourcePoint" />
            <mxPoint x="445" y="310" as="targetPoint" />
          </mxGeometry>
        </mxCell>
        <mxCell id="ZxNRdNKvEkR7DDzx8TMs-39" value="" style="endArrow=classic;startArrow=classic;html=1;rounded=0;verticalAlign=top;horizontal=0;fontStyle=2;align=center;" edge="1" parent="1">
          <mxGeometry width="50" height="50" relative="1" as="geometry">
            <mxPoint x="414.9985714285724" y="480" as="sourcePoint" />
            <mxPoint x="445" y="480" as="targetPoint" />
          </mxGeometry>
        </mxCell>
        <mxCell id="ZxNRdNKvEkR7DDzx8TMs-42" value="" style="rounded=0;whiteSpace=wrap;html=1;fontSize=12;" vertex="1" parent="1">
          <mxGeometry x="520" y="190" width="120" height="360" as="geometry" />
        </mxCell>
        <mxCell id="ZxNRdNKvEkR7DDzx8TMs-44" value="" style="endArrow=classic;startArrow=classic;html=1;rounded=0;verticalAlign=top;horizontal=0;fontStyle=2;align=center;" edge="1" parent="1">
          <mxGeometry width="50" height="50" relative="1" as="geometry">
            <mxPoint x="489.9985714285724" y="365.97" as="sourcePoint" />
            <mxPoint x="520.0000000000002" y="365.97" as="targetPoint" />
          </mxGeometry>
        </mxCell>
        <mxCell id="ZxNRdNKvEkR7DDzx8TMs-45" value="I2C" style="text;html=1;strokeColor=none;fillColor=none;align=center;verticalAlign=middle;whiteSpace=wrap;rounded=0;fontSize=12;" vertex="1" parent="1">
          <mxGeometry x="220" y="380" width="40" height="18.75" as="geometry" />
        </mxCell>
        <mxCell id="ZxNRdNKvEkR7DDzx8TMs-48" value="" style="shape=flexArrow;endArrow=classic;html=1;rounded=0;fontSize=12;sourcePerimeterSpacing=0;strokeWidth=1;opacity=90;exitX=0.991;exitY=0.796;exitDx=0;exitDy=0;exitPerimeter=0;entryX=-0.001;entryY=0.593;entryDx=0;entryDy=0;entryPerimeter=0;" edge="1" parent="1" source="ZxNRdNKvEkR7DDzx8TMs-1" target="ZxNRdNKvEkR7DDzx8TMs-10">
          <mxGeometry width="50" height="50" relative="1" as="geometry">
            <mxPoint x="230" y="455" as="sourcePoint" />
            <mxPoint x="280" y="405" as="targetPoint" />
            <Array as="points">
              <mxPoint x="210" y="405" />
            </Array>
          </mxGeometry>
        </mxCell>
        <mxCell id="ZxNRdNKvEkR7DDzx8TMs-49" value="I2C&lt;br&gt;Tx &amp;amp; Rx" style="text;html=1;strokeColor=none;fillColor=none;align=center;verticalAlign=middle;whiteSpace=wrap;rounded=0;fontSize=12;" vertex="1" parent="1">
          <mxGeometry x="220" y="480" width="50" height="25" as="geometry" />
        </mxCell>
        <mxCell id="ZxNRdNKvEkR7DDzx8TMs-50" value="Application" style="text;html=1;strokeColor=none;fillColor=none;align=center;verticalAlign=middle;whiteSpace=wrap;rounded=0;fontSize=12;" vertex="1" parent="1">
          <mxGeometry x="540" y="190" width="80" height="30" as="geometry" />
        </mxCell>
      </root>
    </mxGraphModel>
  </diagram>
</mxfile>
